<svg width="4885" height="792" viewBox="0 0 4885 792" fill="none" xmlns="http://www.w3.org/2000/svg">
<path d="M117 160.5L94.5 154.5C99.2819 186.74 98.4393 204.646 91.5 233C80.5 233 65 245.5 73.5 264.5C45.2695 288.085 29.1609 297.675 0 309C12.1598 344.242 24.5984 356.107 58 361.5C76.9128 328.608 84.134 309.565 88 274C110 277.5 120.5 250.5 103.5 237C113.376 210.347 117.364 194.319 117 160.5Z" fill="#F8CE0F"/>
<path d="M95 136V143.5L186 166V227.5C297.295 180.947 358.415 177.463 465 214.5V162.5L531.5 140L321.5 0L95 136Z" fill="#21409A"/>
<circle cx="352.5" cy="286" r="55" fill="#F8CE0F"/>
<path d="M188 244.5C184 333.5 485 341 323 763.5C323 257.5 177.461 479 188 244.5Z" fill="#21409A"/>
<path d="M289.5 534.5C290.017 501.446 286.639 484.918 275 458.5C168.5 534.5 122 620.5 156 753C164.883 649.07 186.07 597.77 289.5 534.5Z" fill="#21409A"/>
<path d="M449 232.5C462.387 302.113 448.254 341.1 355 410.5C368.965 437.251 373.115 454.314 376.5 487C481.09 404.346 504.058 350.179 449 232.5Z" fill="#21409A"/>
<rect x="593" y="515" width="4292" height="252" fill="#F8CE0F"/>
<path d="M775.884 644.091C775.884 663.918 772.125 680.786 764.609 694.695C757.151 708.603 746.971 719.227 734.069 726.566C721.226 733.846 706.784 737.486 690.745 737.486C674.587 737.486 660.087 733.816 647.244 726.477C634.4 719.138 624.25 708.514 616.793 694.606C609.335 680.697 605.607 663.859 605.607 644.091C605.607 624.264 609.335 607.396 616.793 593.487C624.25 579.579 634.4 568.984 647.244 561.705C660.087 554.366 674.587 550.696 690.745 550.696C706.784 550.696 721.226 554.366 734.069 561.705C746.971 568.984 757.151 579.579 764.609 593.487C772.125 607.396 775.884 624.264 775.884 644.091ZM736.91 644.091C736.91 631.248 734.986 620.417 731.139 611.598C727.351 602.779 721.995 596.091 715.07 591.534C708.146 586.977 700.037 584.698 690.745 584.698C681.453 584.698 673.344 586.977 666.42 591.534C659.495 596.091 654.109 602.779 650.262 611.598C646.474 620.417 644.58 631.248 644.58 644.091C644.58 656.934 646.474 667.765 650.262 676.584C654.109 685.402 659.495 692.09 666.42 696.648C673.344 701.205 681.453 703.484 690.745 703.484C700.037 703.484 708.146 701.205 715.07 696.648C721.995 692.09 727.351 685.402 731.139 676.584C734.986 667.765 736.91 656.934 736.91 644.091ZM842.8 553.182V735H804.359V553.182H842.8ZM881.863 632.283V662.29H823.802V632.283H881.863ZM1040.15 644.091C1040.15 663.918 1036.4 680.786 1028.88 694.695C1021.42 708.603 1011.24 719.227 998.34 726.566C985.497 733.846 971.055 737.486 955.016 737.486C938.858 737.486 924.358 733.816 911.515 726.477C898.671 719.138 888.521 708.514 881.064 694.606C873.606 680.697 869.878 663.859 869.878 644.091C869.878 624.264 873.606 607.396 881.064 593.487C888.521 579.579 898.671 568.984 911.515 561.705C924.358 554.366 938.858 550.696 955.016 550.696C971.055 550.696 985.497 554.366 998.34 561.705C1011.24 568.984 1021.42 579.579 1028.88 593.487C1036.4 607.396 1040.15 624.264 1040.15 644.091ZM1001.18 644.091C1001.18 631.248 999.257 620.417 995.41 611.598C991.622 602.779 986.266 596.091 979.341 591.534C972.417 586.977 964.308 584.698 955.016 584.698C945.724 584.698 937.616 586.977 930.691 591.534C923.766 596.091 918.38 602.779 914.533 611.598C910.745 620.417 908.851 631.248 908.851 644.091C908.851 656.934 910.745 667.765 914.533 676.584C918.38 685.402 923.766 692.09 930.691 696.648C937.616 701.205 945.724 703.484 955.016 703.484C964.308 703.484 972.417 701.205 979.341 696.648C986.266 692.09 991.622 685.402 995.41 676.584C999.257 667.765 1001.18 656.934 1001.18 644.091ZM1088.14 737.486V706.236H1097.99C1102.91 706.236 1106.87 705.644 1109.89 704.46C1112.91 703.217 1115.31 701.412 1117.08 699.045C1118.92 696.618 1120.45 693.6 1121.7 689.989L1123.92 684.041L1057.87 553.182H1097.64L1140.43 642.67L1176.21 553.182H1215.45L1152.77 699.311C1149.75 706.058 1146.17 712.332 1142.03 718.132C1137.94 723.932 1132.71 728.608 1126.31 732.159C1119.92 735.71 1111.75 737.486 1101.81 737.486H1088.14ZM1240.79 584.876V553.182H1390.12V584.876H1334.46V735H1296.46V584.876H1240.79ZM1414.71 735V553.182H1453.15V628.2H1531.19V553.182H1569.54V735H1531.19V659.893H1453.15V735H1414.71ZM1626.54 620.387H1669.86C1684.3 620.387 1696.73 622.725 1707.15 627.401C1717.62 632.017 1725.7 638.557 1731.38 647.021C1737.07 655.484 1739.88 665.457 1739.82 676.939C1739.88 688.362 1737.07 698.453 1731.38 707.212C1725.7 715.913 1717.62 722.719 1707.15 727.631C1696.73 732.544 1684.3 735 1669.86 735H1601.94V553.182H1640.3V704.105H1669.86C1676.78 704.105 1682.61 702.862 1687.35 700.376C1692.08 697.831 1695.66 694.487 1698.09 690.344C1700.58 686.142 1701.79 681.555 1701.73 676.584C1701.79 669.363 1699.07 663.267 1693.56 658.295C1688.12 653.265 1680.22 650.749 1669.86 650.749H1626.54V620.387ZM1793 553.182V735H1754.64V553.182H1793ZM1875.56 584.876V553.182H2024.88V584.876H1969.22V735H1931.22V584.876H1875.56ZM2170.7 630.685V661.491H2092.31V630.685H2170.7ZM2038.16 675.43H2076.42C2077.07 685.846 2080.33 693.688 2086.19 698.956C2092.05 704.223 2100.72 706.857 2112.2 706.857C2121.55 706.857 2128.98 704.667 2134.48 700.288C2139.99 695.908 2143.95 689.605 2146.38 681.378C2148.8 673.092 2150.02 663.178 2150.02 651.637V636.9C2150.02 625.004 2148.63 614.972 2145.85 606.804C2143.12 598.577 2138.95 592.363 2133.33 588.161C2127.76 583.958 2120.63 581.857 2111.93 581.857C2103.35 581.857 2096.54 583.159 2091.51 585.763C2086.48 588.368 2082.81 592.096 2080.5 596.95C2078.2 601.744 2076.78 607.544 2076.24 614.35H2037.98C2039.16 602.395 2042.6 591.623 2048.28 582.035C2054.02 572.388 2062.16 564.753 2072.69 559.13C2083.29 553.507 2096.37 550.696 2111.93 550.696C2127.38 550.696 2140.78 554.218 2152.15 561.261C2163.51 568.304 2172.3 578.277 2178.52 591.179C2184.73 604.081 2187.84 619.351 2187.84 636.989V651.726C2187.84 669.363 2184.79 684.603 2178.69 697.447C2172.66 710.231 2163.99 720.115 2152.68 727.099C2141.38 734.023 2127.88 737.486 2112.2 737.486C2097.22 737.486 2084.38 734.882 2073.67 729.673C2062.96 724.406 2054.58 717.126 2048.54 707.834C2042.51 698.482 2039.04 687.681 2038.16 675.43ZM2201 584.876V553.182H2350.32V584.876H2294.66V735H2256.66V584.876H2201ZM2495.57 553.182V584.876H2413.36V735H2374.92V553.182H2495.57ZM2641.41 630.685V661.491H2563.02V630.685H2641.41ZM2508.86 675.43H2547.12C2547.77 685.846 2551.03 693.688 2556.89 698.956C2562.75 704.223 2571.42 706.857 2582.9 706.857C2592.25 706.857 2599.68 704.667 2605.18 700.288C2610.69 695.908 2614.65 689.605 2617.08 681.378C2619.51 673.092 2620.72 663.178 2620.72 651.637V636.9C2620.72 625.004 2619.33 614.972 2616.55 606.804C2613.83 598.577 2609.65 592.363 2604.03 588.161C2598.47 583.958 2591.34 581.857 2582.64 581.857C2574.05 581.857 2567.25 583.159 2562.22 585.763C2557.19 588.368 2553.52 592.096 2551.21 596.95C2548.9 601.744 2547.48 607.544 2546.95 614.35H2508.68C2509.87 602.395 2513.3 591.623 2518.98 582.035C2524.72 572.388 2532.86 564.753 2543.4 559.13C2553.99 553.507 2567.07 550.696 2582.64 550.696C2598.08 550.696 2611.49 554.218 2622.85 561.261C2634.22 568.304 2643 578.277 2649.22 591.179C2655.43 604.081 2658.54 619.351 2658.54 636.989V651.726C2658.54 669.363 2655.49 684.603 2649.4 697.447C2643.36 710.231 2634.69 720.115 2623.38 727.099C2612.08 734.023 2598.59 737.486 2582.9 737.486C2567.93 737.486 2555.08 734.882 2544.37 729.673C2533.66 724.406 2525.28 717.126 2519.25 707.834C2513.21 698.482 2509.75 687.681 2508.86 675.43ZM2677.07 735V704.105L2682.22 703.661C2688.85 703.129 2694.21 700.613 2698.29 696.115C2702.38 691.558 2705.42 684.308 2707.44 674.364C2709.51 664.362 2710.84 650.927 2711.43 634.059L2714.45 553.182H2837.85V735H2800.48V583.988H2750.14L2747.3 647.287C2746.35 667.647 2743.92 684.278 2740.02 697.18C2736.17 710.083 2730.01 719.612 2721.55 725.767C2713.15 731.922 2701.64 735 2687.02 735H2677.07ZM2999.07 630.685V661.491H2920.68V630.685H2999.07ZM2866.53 675.43H2904.79C2905.44 685.846 2908.7 693.688 2914.56 698.956C2920.41 704.223 2929.09 706.857 2940.57 706.857C2949.92 706.857 2957.35 704.667 2962.85 700.288C2968.36 695.908 2972.32 689.605 2974.75 681.378C2977.17 673.092 2978.39 663.178 2978.39 651.637V636.9C2978.39 625.004 2977 614.972 2974.21 606.804C2971.49 598.577 2967.32 592.363 2961.7 588.161C2956.13 583.958 2949 581.857 2940.3 581.857C2931.72 581.857 2924.91 583.159 2919.88 585.763C2914.85 588.368 2911.18 592.096 2908.87 596.95C2906.57 601.744 2905.14 607.544 2904.61 614.35H2866.35C2867.53 602.395 2870.97 591.623 2876.65 582.035C2882.39 572.388 2890.53 564.753 2901.06 559.13C2911.66 553.507 2924.74 550.696 2940.3 550.696C2955.75 550.696 2969.15 554.218 2980.52 561.261C2991.88 568.304 3000.67 578.277 3006.88 591.179C3013.1 604.081 3016.21 619.351 3016.21 636.989V651.726C3016.21 669.363 3013.16 684.603 3007.06 697.447C3001.03 710.231 2992.35 720.115 2981.05 727.099C2969.75 734.023 2956.25 737.486 2940.57 737.486C2925.59 737.486 2912.75 734.882 2902.04 729.673C2891.33 724.406 2882.95 717.126 2876.91 707.834C2870.88 698.482 2867.41 687.681 2866.53 675.43ZM3165.24 553.182V584.876H3083.03V735H3044.59V553.182H3165.24ZM3182.93 584.876V553.182H3332.26V584.876H3276.59V735H3238.6V584.876H3182.93ZM3450.75 553.182L3487.42 615.149H3488.84L3525.68 553.182H3569.1L3513.61 644.091L3570.34 735H3526.13L3488.84 672.944H3487.42L3450.13 735H3406.1L3463.01 644.091L3407.16 553.182H3450.75ZM3751.96 644.091C3751.96 663.918 3748.2 680.786 3740.68 694.695C3733.23 708.603 3723.05 719.227 3710.14 726.566C3697.3 733.846 3682.86 737.486 3666.82 737.486C3650.66 737.486 3636.16 733.816 3623.32 726.477C3610.47 719.138 3600.32 708.514 3592.87 694.606C3585.41 680.697 3581.68 663.859 3581.68 644.091C3581.68 624.264 3585.41 607.396 3592.87 593.487C3600.32 579.579 3610.47 568.984 3623.32 561.705C3636.16 554.366 3650.66 550.696 3666.82 550.696C3682.86 550.696 3697.3 554.366 3710.14 561.705C3723.05 568.984 3733.23 579.579 3740.68 593.487C3748.2 607.396 3751.96 624.264 3751.96 644.091ZM3712.98 644.091C3712.98 631.248 3711.06 620.417 3707.21 611.598C3703.43 602.779 3698.07 596.091 3691.14 591.534C3684.22 586.977 3676.11 584.698 3666.82 584.698C3657.53 584.698 3649.42 586.977 3642.49 591.534C3635.57 596.091 3630.18 602.779 3626.34 611.598C3622.55 620.417 3620.65 631.248 3620.65 644.091C3620.65 656.934 3622.55 667.765 3626.34 676.584C3630.18 685.402 3635.57 692.09 3642.49 696.648C3649.42 701.205 3657.53 703.484 3666.82 703.484C3676.11 703.484 3684.22 701.205 3691.14 696.648C3698.07 692.09 3703.43 685.402 3707.21 676.584C3711.06 667.765 3712.98 656.934 3712.98 644.091ZM3725.24 631.662V656.52H3608.31V631.662H3725.24ZM3765.21 584.876V553.182H3914.53V584.876H3858.87V735H3820.87V584.876H3765.21ZM4097.91 644.091C4097.91 663.918 4094.15 680.786 4086.63 694.695C4079.17 708.603 4068.99 719.227 4056.09 726.566C4043.25 733.846 4028.81 737.486 4012.77 737.486C3996.61 737.486 3982.11 733.816 3969.27 726.477C3956.42 719.138 3946.27 708.514 3938.81 694.606C3931.36 680.697 3927.63 663.859 3927.63 644.091C3927.63 624.264 3931.36 607.396 3938.81 593.487C3946.27 579.579 3956.42 568.984 3969.27 561.705C3982.11 554.366 3996.61 550.696 4012.77 550.696C4028.81 550.696 4043.25 554.366 4056.09 561.705C4068.99 568.984 4079.17 579.579 4086.63 593.487C4094.15 607.396 4097.91 624.264 4097.91 644.091ZM4058.93 644.091C4058.93 631.248 4057.01 620.417 4053.16 611.598C4049.37 602.779 4044.02 596.091 4037.09 591.534C4030.17 586.977 4022.06 584.698 4012.77 584.698C4003.47 584.698 3995.37 586.977 3988.44 591.534C3981.52 596.091 3976.13 602.779 3972.28 611.598C3968.5 620.417 3966.6 631.248 3966.6 644.091C3966.6 656.934 3968.5 667.765 3972.28 676.584C3976.13 685.402 3981.52 692.09 3988.44 696.648C3995.37 701.205 4003.47 703.484 4012.77 703.484C4022.06 703.484 4030.17 701.205 4037.09 696.648C4044.02 692.09 4049.37 685.402 4053.16 676.584C4057.01 667.765 4058.93 656.934 4058.93 644.091ZM4071.18 631.662V656.52H3954.26V631.662H4071.18ZM4116.53 735V704.105L4121.68 703.661C4128.3 703.129 4133.66 700.613 4137.74 696.115C4141.83 691.558 4144.88 684.308 4146.89 674.364C4148.96 664.362 4150.29 650.927 4150.88 634.059L4153.9 553.182H4277.3V735H4239.93V583.988H4189.59L4186.75 647.287C4185.8 667.647 4183.38 684.278 4179.47 697.18C4175.62 710.083 4169.47 719.612 4161 725.767C4152.6 731.922 4141.09 735 4126.47 735H4116.53ZM4309 735V553.182H4429.65V584.876H4347.44V620.387H4377C4391.38 620.387 4403.78 622.725 4414.2 627.401C4424.68 632.017 4432.75 638.557 4438.44 647.021C4444.12 655.484 4446.96 665.457 4446.96 676.939C4446.96 688.362 4444.12 698.453 4438.44 707.212C4432.75 715.913 4424.68 722.719 4414.2 727.631C4403.78 732.544 4391.38 735 4377 735H4309ZM4347.44 704.105H4377C4383.87 704.105 4389.67 702.862 4394.4 700.376C4399.14 697.831 4402.72 694.487 4405.14 690.344C4407.63 686.142 4408.87 681.555 4408.87 676.584C4408.87 669.363 4406.12 663.267 4400.62 658.295C4395.17 653.265 4387.3 650.749 4377 650.749H4347.44V704.105ZM4638.92 644.091C4638.92 663.918 4635.16 680.786 4627.65 694.695C4620.19 708.603 4610.01 719.227 4597.11 726.566C4584.26 733.846 4569.82 737.486 4553.78 737.486C4537.62 737.486 4523.12 733.816 4510.28 726.477C4497.44 719.138 4487.29 708.514 4479.83 694.606C4472.37 680.697 4468.64 663.859 4468.64 644.091C4468.64 624.264 4472.37 607.396 4479.83 593.487C4487.29 579.579 4497.44 568.984 4510.28 561.705C4523.12 554.366 4537.62 550.696 4553.78 550.696C4569.82 550.696 4584.26 554.366 4597.11 561.705C4610.01 568.984 4620.19 579.579 4627.65 593.487C4635.16 607.396 4638.92 624.264 4638.92 644.091ZM4599.95 644.091C4599.95 631.248 4598.02 620.417 4594.18 611.598C4590.39 602.779 4585.03 596.091 4578.11 591.534C4571.18 586.977 4563.07 584.698 4553.78 584.698C4544.49 584.698 4536.38 586.977 4529.46 591.534C4522.53 596.091 4517.15 602.779 4513.3 611.598C4509.51 620.417 4507.62 631.248 4507.62 644.091C4507.62 656.934 4509.51 667.765 4513.3 676.584C4517.15 685.402 4522.53 692.09 4529.46 696.648C4536.38 701.205 4544.49 703.484 4553.78 703.484C4563.07 703.484 4571.18 701.205 4578.11 696.648C4585.03 692.09 4590.39 685.402 4594.18 676.584C4598.02 667.765 4599.95 656.934 4599.95 644.091ZM4612.2 631.662V656.52H4495.28V631.662H4612.2ZM4667.4 735V553.182H4739.13C4752.92 553.182 4764.67 555.816 4774.37 561.083C4784.08 566.291 4791.48 573.542 4796.57 582.834C4801.72 592.067 4804.29 602.72 4804.29 614.794C4804.29 626.868 4801.69 637.521 4796.48 646.754C4791.27 655.987 4783.73 663.178 4773.84 668.327C4764.02 673.477 4752.12 676.051 4738.15 676.051H4692.43V645.245H4731.94C4739.34 645.245 4745.43 643.973 4750.23 641.428C4755.08 638.823 4758.69 635.243 4761.06 630.685C4763.48 626.069 4764.7 620.772 4764.7 614.794C4764.7 608.757 4763.48 603.49 4761.06 598.991C4758.69 594.434 4755.08 590.913 4750.23 588.427C4745.37 585.882 4739.22 584.609 4731.76 584.609H4705.84V735H4667.4Z" fill="#21409A"/>
<path d="M683.227 263.5H663.318C662.955 260.924 662.212 258.636 661.091 256.636C659.97 254.606 658.53 252.879 656.773 251.455C655.015 250.03 652.985 248.939 650.682 248.182C648.409 247.424 645.939 247.045 643.273 247.045C638.455 247.045 634.258 248.242 630.682 250.636C627.106 253 624.333 256.455 622.364 261C620.394 265.515 619.409 271 619.409 277.455C619.409 284.091 620.394 289.667 622.364 294.182C624.364 298.697 627.152 302.106 630.727 304.409C634.303 306.712 638.439 307.864 643.136 307.864C645.773 307.864 648.212 307.515 650.455 306.818C652.727 306.121 654.742 305.106 656.5 303.773C658.258 302.409 659.712 300.758 660.864 298.818C662.045 296.879 662.864 294.667 663.318 292.182L683.227 292.273C682.712 296.545 681.424 300.667 679.364 304.636C677.333 308.576 674.591 312.106 671.136 315.227C667.712 318.318 663.621 320.773 658.864 322.591C654.136 324.379 648.788 325.273 642.818 325.273C634.515 325.273 627.091 323.394 620.545 319.636C614.03 315.879 608.879 310.439 605.091 303.318C601.333 296.197 599.455 287.576 599.455 277.455C599.455 267.303 601.364 258.667 605.182 251.545C609 244.424 614.182 239 620.727 235.273C627.273 231.515 634.636 229.636 642.818 229.636C648.212 229.636 653.212 230.394 657.818 231.909C662.455 233.424 666.561 235.636 670.136 238.545C673.712 241.424 676.621 244.955 678.864 249.136C681.136 253.318 682.591 258.106 683.227 263.5ZM691.886 230.909H713.932L735.159 271H736.068L757.295 230.909H779.341L745.386 291.091V324H725.841V291.091L691.886 230.909ZM808.545 230.909L827.318 262.636H828.045L846.909 230.909H869.136L840.727 277.455L869.773 324H847.136L828.045 292.227H827.318L808.227 324H785.682L814.818 277.455L786.227 230.909H808.545ZM881.591 324V230.909H943.364V247.136H901.273V265.318H916.409C923.773 265.318 930.121 266.515 935.455 268.909C940.818 271.273 944.955 274.621 947.864 278.955C950.773 283.288 952.227 288.394 952.227 294.273C952.227 300.121 950.773 305.288 947.864 309.773C944.955 314.227 940.818 317.712 935.455 320.227C930.121 322.742 923.773 324 916.409 324H881.591ZM901.273 308.182H916.409C919.924 308.182 922.894 307.545 925.318 306.273C927.742 304.97 929.576 303.258 930.818 301.136C932.091 298.985 932.727 296.636 932.727 294.091C932.727 290.394 931.318 287.273 928.5 284.727C925.712 282.152 921.682 280.864 916.409 280.864H901.273V308.182ZM981.011 324H959.92L992.057 230.909H1017.42L1049.51 324H1028.42L1005.1 252.182H1004.38L981.011 324ZM979.693 287.409H1029.51V302.773H979.693V287.409ZM1076.76 324H1055.67L1087.81 230.909H1113.17L1145.26 324H1124.17L1100.85 252.182H1100.12L1076.76 324ZM1075.44 287.409H1125.26V302.773H1075.44V287.409ZM1141.55 247.136V230.909H1218V247.136H1189.5V324H1170.05V247.136H1141.55ZM1235.26 324H1214.17L1246.31 230.909H1271.67L1303.76 324H1282.67L1259.35 252.182H1258.62L1235.26 324ZM1233.94 287.409H1283.76V302.773H1233.94V287.409ZM1314.97 324V230.909H1351.69C1358.75 230.909 1364.77 232.258 1369.74 234.955C1374.71 237.621 1378.5 241.333 1381.1 246.091C1383.74 250.818 1385.06 256.273 1385.06 262.455C1385.06 268.636 1383.72 274.091 1381.06 278.818C1378.39 283.545 1374.53 287.227 1369.47 289.864C1364.44 292.5 1358.34 293.818 1351.19 293.818H1327.78V278.045H1348.01C1351.8 278.045 1354.92 277.394 1357.38 276.091C1359.86 274.758 1361.71 272.924 1362.92 270.591C1364.16 268.227 1364.78 265.515 1364.78 262.455C1364.78 259.364 1364.16 256.667 1362.92 254.364C1361.71 252.03 1359.86 250.227 1357.38 248.955C1354.89 247.652 1351.74 247 1347.92 247H1334.65V324H1314.97ZM1443.51 324H1422.42L1454.56 230.909H1479.92L1512.01 324H1490.92L1467.6 252.182H1466.88L1443.51 324ZM1442.19 287.409H1492.01V302.773H1442.19V287.409ZM1523.22 230.909H1542.85V289.455H1543.62L1583.85 230.909H1601.08V324H1581.4V265.409H1580.72L1540.26 324H1523.22V230.909ZM1571.22 206.545H1584.72C1584.69 212.061 1582.64 216.5 1578.58 219.864C1574.55 223.227 1569.09 224.909 1562.22 224.909C1555.31 224.909 1549.84 223.227 1545.81 219.864C1541.78 216.5 1539.76 212.061 1539.76 206.545H1553.17C1553.14 208.636 1553.81 210.515 1555.17 212.182C1556.56 213.848 1558.91 214.682 1562.22 214.682C1565.43 214.682 1567.73 213.864 1569.12 212.227C1570.52 210.591 1571.22 208.697 1571.22 206.545ZM1617.34 230.909H1641.61L1667.25 293.455H1668.34L1693.98 230.909H1718.25V324H1699.16V263.409H1698.39L1674.3 323.545H1661.3L1637.2 263.182H1636.43V324H1617.34V230.909ZM1796.24 230.909V247.136H1754.15V324H1734.47V230.909H1796.24ZM1808.84 230.909H1828.48V289.455H1829.25L1869.48 230.909H1886.7V324H1867.02V265.409H1866.34L1825.89 324H1808.84V230.909ZM1902.97 230.909H1922.6V289.455H1923.38L1963.6 230.909H1980.83V324H1961.15V265.409H1960.47L1920.01 324H1902.97V230.909ZM1950.97 206.545H1964.47C1964.44 212.061 1962.39 216.5 1958.33 219.864C1954.3 223.227 1948.84 224.909 1941.97 224.909C1935.06 224.909 1929.59 223.227 1925.56 219.864C1921.53 216.5 1919.51 212.061 1919.51 206.545H1932.92C1932.89 208.636 1933.56 210.515 1934.92 212.182C1936.31 213.848 1938.66 214.682 1941.97 214.682C1945.18 214.682 1947.48 213.864 1948.88 212.227C1950.27 210.591 1950.97 208.697 1950.97 206.545ZM1997.09 324V230.909H2016.77V269.318H2056.73V230.909H2076.36V324H2056.73V285.545H2016.77V324H1997.09ZM2140.67 230.909L2159.44 262.636H2160.17L2179.03 230.909H2201.26L2172.85 277.455L2201.9 324H2179.26L2160.17 292.227H2159.44L2140.35 324H2117.81L2146.94 277.455L2118.35 230.909H2140.67ZM2229.76 324H2208.67L2240.81 230.909H2266.17L2298.26 324H2277.17L2253.85 252.182H2253.12L2229.76 324ZM2228.44 287.409H2278.26V302.773H2228.44V287.409ZM2304.42 324V308.182L2307.06 307.955C2310.45 307.682 2313.19 306.394 2315.28 304.091C2317.38 301.758 2318.94 298.045 2319.97 292.955C2321.03 287.833 2321.71 280.955 2322.01 272.318L2323.56 230.909H2386.74V324H2367.6V246.682H2341.83L2340.38 279.091C2339.89 289.515 2338.65 298.03 2336.65 304.636C2334.68 311.242 2331.53 316.121 2327.19 319.273C2322.89 322.424 2317 324 2309.51 324H2304.42ZM2436.83 325.273C2430.04 325.273 2424 324.106 2418.69 321.773C2413.42 319.409 2409.25 316.167 2406.19 312.045C2403.16 307.894 2401.6 303.106 2401.51 297.682H2421.33C2421.45 299.955 2422.19 301.955 2423.56 303.682C2424.95 305.379 2426.8 306.697 2429.1 307.636C2431.41 308.576 2434 309.045 2436.88 309.045C2439.88 309.045 2442.53 308.515 2444.83 307.455C2447.13 306.394 2448.94 304.924 2450.24 303.045C2451.54 301.167 2452.19 299 2452.19 296.545C2452.19 294.061 2451.5 291.864 2450.1 289.955C2448.74 288.015 2446.77 286.5 2444.19 285.409C2441.65 284.318 2438.62 283.773 2435.1 283.773H2426.42V269.318H2435.1C2438.07 269.318 2440.69 268.803 2442.97 267.773C2445.27 266.742 2447.06 265.318 2448.33 263.5C2449.6 261.652 2450.24 259.5 2450.24 257.045C2450.24 254.712 2449.68 252.667 2448.56 250.909C2447.47 249.121 2445.92 247.727 2443.92 246.727C2441.95 245.727 2439.65 245.227 2437.01 245.227C2434.34 245.227 2431.91 245.712 2429.69 246.682C2427.48 247.621 2425.71 248.97 2424.38 250.727C2423.04 252.485 2422.33 254.545 2422.24 256.909H2403.38C2403.47 251.545 2405 246.818 2407.97 242.727C2410.94 238.636 2414.94 235.439 2419.97 233.136C2425.03 230.803 2430.74 229.636 2437.1 229.636C2443.53 229.636 2449.15 230.803 2453.97 233.136C2458.78 235.47 2462.53 238.621 2465.19 242.591C2467.89 246.53 2469.22 250.955 2469.19 255.864C2469.22 261.076 2467.6 265.424 2464.33 268.909C2461.09 272.394 2456.86 274.606 2451.65 275.545V276.273C2458.5 277.152 2463.71 279.53 2467.28 283.409C2470.89 287.258 2472.68 292.076 2472.65 297.864C2472.68 303.167 2471.15 307.879 2468.06 312C2465 316.121 2460.77 319.364 2455.38 321.727C2449.98 324.091 2443.8 325.273 2436.83 325.273ZM2503.39 324H2482.3L2514.43 230.909H2539.8L2571.89 324H2550.8L2527.48 252.182H2526.75L2503.39 324ZM2502.07 287.409H2551.89V302.773H2502.07V287.409ZM2583.09 324V230.909H2602.77V269.318H2642.73V230.909H2662.36V324H2642.73V285.545H2602.77V324H2583.09ZM2790.35 263.5H2770.44C2770.08 260.924 2769.34 258.636 2768.22 256.636C2767.09 254.606 2765.66 252.879 2763.9 251.455C2762.14 250.03 2760.11 248.939 2757.81 248.182C2755.53 247.424 2753.06 247.045 2750.4 247.045C2745.58 247.045 2741.38 248.242 2737.81 250.636C2734.23 253 2731.46 256.455 2729.49 261C2727.52 265.515 2726.53 271 2726.53 277.455C2726.53 284.091 2727.52 289.667 2729.49 294.182C2731.49 298.697 2734.28 302.106 2737.85 304.409C2741.43 306.712 2745.56 307.864 2750.26 307.864C2752.9 307.864 2755.34 307.515 2757.58 306.818C2759.85 306.121 2761.87 305.106 2763.62 303.773C2765.38 302.409 2766.84 300.758 2767.99 298.818C2769.17 296.879 2769.99 294.667 2770.44 292.182L2790.35 292.273C2789.84 296.545 2788.55 300.667 2786.49 304.636C2784.46 308.576 2781.72 312.106 2778.26 315.227C2774.84 318.318 2770.75 320.773 2765.99 322.591C2761.26 324.379 2755.91 325.273 2749.94 325.273C2741.64 325.273 2734.22 323.394 2727.67 319.636C2721.16 315.879 2716 310.439 2712.22 303.318C2708.46 296.197 2706.58 287.576 2706.58 277.455C2706.58 267.303 2708.49 258.667 2712.31 251.545C2716.13 244.424 2721.31 239 2727.85 235.273C2734.4 231.515 2741.76 229.636 2749.94 229.636C2755.34 229.636 2760.34 230.394 2764.94 231.909C2769.58 233.424 2773.69 235.636 2777.26 238.545C2780.84 241.424 2783.75 244.955 2785.99 249.136C2788.26 253.318 2789.72 258.106 2790.35 263.5ZM2814.51 325.273V309.273H2819.56C2822.07 309.273 2824.1 308.97 2825.65 308.364C2827.19 307.727 2828.42 306.803 2829.33 305.591C2830.27 304.348 2831.06 302.803 2831.69 300.955L2832.83 297.909L2799.01 230.909H2819.38L2841.28 276.727L2859.6 230.909H2879.69L2847.6 305.727C2846.06 309.182 2844.22 312.394 2842.1 315.364C2840.01 318.333 2837.33 320.727 2834.06 322.545C2830.78 324.364 2826.6 325.273 2821.51 325.273H2814.51ZM2890.34 230.909H2914.61L2940.25 293.455H2941.34L2966.98 230.909H2991.25V324H2972.16V263.409H2971.39L2947.3 323.545H2934.3L2910.2 263.182H2909.43V324H2890.34V230.909ZM3020.42 265.318H3042.6C3050 265.318 3056.36 266.515 3061.69 268.909C3067.06 271.273 3071.19 274.621 3074.1 278.955C3077.01 283.288 3078.45 288.394 3078.42 294.273C3078.45 300.121 3077.01 305.288 3074.1 309.773C3071.19 314.227 3067.06 317.712 3061.69 320.227C3056.36 322.742 3050 324 3042.6 324H3007.83V230.909H3027.47V308.182H3042.6C3046.15 308.182 3049.13 307.545 3051.56 306.273C3053.98 304.97 3055.81 303.258 3057.06 301.136C3058.33 298.985 3058.95 296.636 3058.92 294.091C3058.95 290.394 3057.56 287.273 3054.74 284.727C3051.95 282.152 3047.91 280.864 3042.6 280.864H3020.42V265.318ZM3105.65 230.909V324H3086.01V230.909H3105.65ZM3121.84 324V230.909H3141.52V269.318H3181.48V230.909H3201.11V324H3181.48V285.545H3141.52V324H3121.84ZM3332.51 277.455C3332.51 287.606 3330.59 296.242 3326.74 303.364C3322.92 310.485 3317.71 315.924 3311.1 319.682C3304.53 323.409 3297.13 325.273 3288.92 325.273C3280.65 325.273 3273.22 323.394 3266.65 319.636C3260.07 315.879 3254.88 310.439 3251.06 303.318C3247.24 296.197 3245.33 287.576 3245.33 277.455C3245.33 267.303 3247.24 258.667 3251.06 251.545C3254.88 244.424 3260.07 239 3266.65 235.273C3273.22 231.515 3280.65 229.636 3288.92 229.636C3297.13 229.636 3304.53 231.515 3311.1 235.273C3317.71 239 3322.92 244.424 3326.74 251.545C3330.59 258.667 3332.51 267.303 3332.51 277.455ZM3312.56 277.455C3312.56 270.879 3311.57 265.333 3309.6 260.818C3307.66 256.303 3304.92 252.879 3301.38 250.545C3297.83 248.212 3293.68 247.045 3288.92 247.045C3284.16 247.045 3280.01 248.212 3276.47 250.545C3272.92 252.879 3270.16 256.303 3268.19 260.818C3266.25 265.333 3265.28 270.879 3265.28 277.455C3265.28 284.03 3266.25 289.576 3268.19 294.091C3270.16 298.606 3272.92 302.03 3276.47 304.364C3280.01 306.697 3284.16 307.864 3288.92 307.864C3293.68 307.864 3297.83 306.697 3301.38 304.364C3304.92 302.03 3307.66 298.606 3309.6 294.091C3311.57 289.576 3312.56 284.03 3312.56 277.455ZM3366.77 230.909V324H3347.09V230.909H3366.77ZM3386.77 271.409V286.773H3357.05V271.409H3386.77ZM3467.82 277.455C3467.82 287.606 3465.89 296.242 3462.05 303.364C3458.23 310.485 3453.02 315.924 3446.41 319.682C3439.83 323.409 3432.44 325.273 3424.23 325.273C3415.95 325.273 3408.53 323.394 3401.95 319.636C3395.38 315.879 3390.18 310.439 3386.36 303.318C3382.55 296.197 3380.64 287.576 3380.64 277.455C3380.64 267.303 3382.55 258.667 3386.36 251.545C3390.18 244.424 3395.38 239 3401.95 235.273C3408.53 231.515 3415.95 229.636 3424.23 229.636C3432.44 229.636 3439.83 231.515 3446.41 235.273C3453.02 239 3458.23 244.424 3462.05 251.545C3465.89 258.667 3467.82 267.303 3467.82 277.455ZM3447.86 277.455C3447.86 270.879 3446.88 265.333 3444.91 260.818C3442.97 256.303 3440.23 252.879 3436.68 250.545C3433.14 248.212 3428.98 247.045 3424.23 247.045C3419.47 247.045 3415.32 248.212 3411.77 250.545C3408.23 252.879 3405.47 256.303 3403.5 260.818C3401.56 265.333 3400.59 270.879 3400.59 277.455C3400.59 284.03 3401.56 289.576 3403.5 294.091C3405.47 298.606 3408.23 302.03 3411.77 304.364C3415.32 306.697 3419.47 307.864 3424.23 307.864C3428.98 307.864 3433.14 306.697 3436.68 304.364C3440.23 302.03 3442.97 298.606 3444.91 294.091C3446.88 289.576 3447.86 284.03 3447.86 277.455ZM3492.39 325.273V309.273H3497.43C3499.95 309.273 3501.98 308.97 3503.52 308.364C3505.07 307.727 3506.3 306.803 3507.2 305.591C3508.14 304.348 3508.93 302.803 3509.57 300.955L3510.7 297.909L3476.89 230.909H3497.25L3519.16 276.727L3537.48 230.909H3557.57L3525.48 305.727C3523.93 309.182 3522.1 312.394 3519.98 315.364C3517.89 318.333 3515.2 320.727 3511.93 322.545C3508.66 324.364 3504.48 325.273 3499.39 325.273H3492.39ZM3570.55 247.136V230.909H3647V247.136H3618.5V324H3599.05V247.136H3570.55ZM3664.26 324H3643.17L3675.31 230.909H3700.67L3732.76 324H3711.67L3688.35 252.182H3687.62L3664.26 324ZM3662.94 287.409H3712.76V302.773H3662.94V287.409ZM3743.97 324V230.909H3763.65V269.318H3803.6V230.909H3823.24V324H3803.6V285.545H3763.65V324H3743.97ZM3860.15 311.273L3859.65 316.273C3859.25 320.273 3858.5 324.258 3857.38 328.227C3856.28 332.227 3855.13 335.848 3853.92 339.091C3852.74 342.333 3851.78 344.879 3851.06 346.727H3838.51C3838.97 344.939 3839.59 342.439 3840.38 339.227C3841.16 336.045 3841.91 332.47 3842.6 328.5C3843.3 324.53 3843.74 320.485 3843.92 316.364L3844.15 311.273H3860.15ZM634.955 480.273C628.167 480.273 622.121 479.106 616.818 476.773C611.545 474.409 607.379 471.167 604.318 467.045C601.288 462.894 599.727 458.106 599.636 452.682H619.455C619.576 454.955 620.318 456.955 621.682 458.682C623.076 460.379 624.924 461.697 627.227 462.636C629.53 463.576 632.121 464.045 635 464.045C638 464.045 640.652 463.515 642.955 462.455C645.258 461.394 647.061 459.924 648.364 458.045C649.667 456.167 650.318 454 650.318 451.545C650.318 449.061 649.621 446.864 648.227 444.955C646.864 443.015 644.894 441.5 642.318 440.409C639.773 439.318 636.742 438.773 633.227 438.773H624.545V424.318H633.227C636.197 424.318 638.818 423.803 641.091 422.773C643.394 421.742 645.182 420.318 646.455 418.5C647.727 416.652 648.364 414.5 648.364 412.045C648.364 409.712 647.803 407.667 646.682 405.909C645.591 404.121 644.045 402.727 642.045 401.727C640.076 400.727 637.773 400.227 635.136 400.227C632.47 400.227 630.03 400.712 627.818 401.682C625.606 402.621 623.833 403.97 622.5 405.727C621.167 407.485 620.455 409.545 620.364 411.909H601.5C601.591 406.545 603.121 401.818 606.091 397.727C609.061 393.636 613.061 390.439 618.091 388.136C623.152 385.803 628.864 384.636 635.227 384.636C641.652 384.636 647.273 385.803 652.091 388.136C656.909 390.47 660.652 393.621 663.318 397.591C666.015 401.53 667.348 405.955 667.318 410.864C667.348 416.076 665.727 420.424 662.455 423.909C659.212 427.394 654.985 429.606 649.773 430.545V431.273C656.621 432.152 661.833 434.53 665.409 438.409C669.015 442.258 670.803 447.076 670.773 452.864C670.803 458.167 669.273 462.879 666.182 467C663.121 471.121 658.894 474.364 653.5 476.727C648.106 479.091 641.924 480.273 634.955 480.273ZM701.511 479H680.42L712.557 385.909H737.92L770.011 479H748.92L725.602 407.182H724.875L701.511 479ZM700.193 442.409H750.011V457.773H700.193V442.409ZM776.17 479V463.182L778.807 462.955C782.201 462.682 784.943 461.394 787.034 459.091C789.125 456.758 790.686 453.045 791.716 447.955C792.777 442.833 793.458 435.955 793.761 427.318L795.307 385.909H858.489V479H839.352V401.682H813.58L812.125 434.091C811.64 444.515 810.398 453.03 808.398 459.636C806.428 466.242 803.277 471.121 798.943 474.273C794.64 477.424 788.746 479 781.261 479H776.17ZM884.761 480.273V464.273H889.807C892.322 464.273 894.352 463.97 895.898 463.364C897.443 462.727 898.67 461.803 899.58 460.591C900.519 459.348 901.307 457.803 901.943 455.955L903.08 452.909L869.261 385.909H889.625L911.534 431.727L929.852 385.909H949.943L917.852 460.727C916.307 464.182 914.473 467.394 912.352 470.364C910.261 473.333 907.58 475.727 904.307 477.545C901.034 479.364 896.852 480.273 891.761 480.273H884.761ZM970.636 480.273V464.273H975.682C978.197 464.273 980.227 463.97 981.773 463.364C983.318 462.727 984.545 461.803 985.455 460.591C986.394 459.348 987.182 457.803 987.818 455.955L988.955 452.909L955.136 385.909H975.5L997.409 431.727L1015.73 385.909H1035.82L1003.73 460.727C1002.18 464.182 1000.35 467.394 998.227 470.364C996.136 473.333 993.455 475.727 990.182 477.545C986.909 479.364 982.727 480.273 977.636 480.273H970.636ZM1050.24 385.909H1069.38V415.909C1069.38 419.485 1070 422.364 1071.24 424.545C1072.48 426.697 1074.41 428.258 1077.01 429.227C1079.65 430.167 1083.03 430.636 1087.15 430.636C1088.6 430.636 1090.31 430.591 1092.28 430.5C1094.25 430.379 1096.28 430.212 1098.38 430C1100.5 429.788 1102.5 429.53 1104.38 429.227C1106.25 428.924 1107.81 428.576 1109.06 428.182V443.727C1107.78 444.152 1106.19 444.53 1104.28 444.864C1102.41 445.167 1100.42 445.439 1098.33 445.682C1096.24 445.894 1094.21 446.061 1092.24 446.182C1090.27 446.303 1088.57 446.364 1087.15 446.364C1079.66 446.364 1073.15 445.303 1067.6 443.182C1062.06 441.03 1057.77 437.712 1054.74 433.227C1051.74 428.742 1050.24 422.97 1050.24 415.909V385.909ZM1105.65 385.909H1124.88V479H1105.65V385.909ZM1154.39 480.273V464.273H1159.43C1161.95 464.273 1163.98 463.97 1165.52 463.364C1167.07 462.727 1168.3 461.803 1169.2 460.591C1170.14 459.348 1170.93 457.803 1171.57 455.955L1172.7 452.909L1138.89 385.909H1159.25L1181.16 431.727L1199.48 385.909H1219.57L1187.48 460.727C1185.93 464.182 1184.1 467.394 1181.98 470.364C1179.89 473.333 1177.2 475.727 1173.93 477.545C1170.66 479.364 1166.48 480.273 1161.39 480.273H1154.39ZM1240.26 480.273V464.273H1245.31C1247.82 464.273 1249.85 463.97 1251.4 463.364C1252.94 462.727 1254.17 461.803 1255.08 460.591C1256.02 459.348 1256.81 457.803 1257.44 455.955L1258.58 452.909L1224.76 385.909H1245.12L1267.03 431.727L1285.35 385.909H1305.44L1273.35 460.727C1271.81 464.182 1269.97 467.394 1267.85 470.364C1265.76 473.333 1263.08 475.727 1259.81 477.545C1256.53 479.364 1252.35 480.273 1247.26 480.273H1240.26ZM1311.05 501.455V463.318H1317.36C1319.52 461.773 1321.48 459.591 1323.27 456.773C1325.06 453.924 1326.59 450 1327.86 445C1329.14 439.97 1330.05 433.394 1330.59 425.273L1333.23 385.909H1394.82V463.318H1405V501.364H1386.09V479H1329.95V501.455H1311.05ZM1340.09 463.318H1375.91V402.136H1350.95L1349.5 425.273C1349.11 431.424 1348.45 436.879 1347.55 441.636C1346.67 446.394 1345.59 450.561 1344.32 454.136C1343.08 457.682 1341.67 460.742 1340.09 463.318ZM1429.92 420.318H1452.1C1459.5 420.318 1465.86 421.515 1471.19 423.909C1476.56 426.273 1480.69 429.621 1483.6 433.955C1486.51 438.288 1487.95 443.394 1487.92 449.273C1487.95 455.121 1486.51 460.288 1483.6 464.773C1480.69 469.227 1476.56 472.712 1471.19 475.227C1465.86 477.742 1459.5 479 1452.1 479H1417.33V385.909H1436.97V463.182H1452.1C1455.65 463.182 1458.63 462.545 1461.06 461.273C1463.48 459.97 1465.31 458.258 1466.56 456.136C1467.83 453.985 1468.45 451.636 1468.42 449.091C1468.45 445.394 1467.06 442.273 1464.24 439.727C1461.45 437.152 1457.41 435.864 1452.1 435.864H1429.92V420.318ZM1515.15 385.909V479H1495.51V385.909H1515.15ZM1531.34 479V385.909H1551.02V424.318H1590.98V385.909H1610.61V479H1590.98V440.545H1551.02V479H1531.34ZM1674.92 385.909L1693.69 417.636H1694.42L1713.28 385.909H1735.51L1707.1 432.455L1736.15 479H1713.51L1694.42 447.227H1693.69L1674.6 479H1652.06L1681.19 432.455L1652.6 385.909H1674.92ZM1829.14 432.455C1829.14 442.606 1827.21 451.242 1823.36 458.364C1819.55 465.485 1814.33 470.924 1807.73 474.682C1801.15 478.409 1793.76 480.273 1785.55 480.273C1777.27 480.273 1769.85 478.394 1763.27 474.636C1756.7 470.879 1751.5 465.439 1747.68 458.318C1743.86 451.197 1741.95 442.576 1741.95 432.455C1741.95 422.303 1743.86 413.667 1747.68 406.545C1751.5 399.424 1756.7 394 1763.27 390.273C1769.85 386.515 1777.27 384.636 1785.55 384.636C1793.76 384.636 1801.15 386.515 1807.73 390.273C1814.33 394 1819.55 399.424 1823.36 406.545C1827.21 413.667 1829.14 422.303 1829.14 432.455ZM1809.18 432.455C1809.18 425.879 1808.2 420.333 1806.23 415.818C1804.29 411.303 1801.55 407.879 1798 405.545C1794.45 403.212 1790.3 402.045 1785.55 402.045C1780.79 402.045 1776.64 403.212 1773.09 405.545C1769.55 407.879 1766.79 411.303 1764.82 415.818C1762.88 420.333 1761.91 425.879 1761.91 432.455C1761.91 439.03 1762.88 444.576 1764.82 449.091C1766.79 453.606 1769.55 457.03 1773.09 459.364C1776.64 461.697 1780.79 462.864 1785.55 462.864C1790.3 462.864 1794.45 461.697 1798 459.364C1801.55 457.03 1804.29 453.606 1806.23 449.091C1808.2 444.576 1809.18 439.03 1809.18 432.455ZM1838.67 479V463.182L1841.31 462.955C1844.7 462.682 1847.44 461.394 1849.53 459.091C1851.63 456.758 1853.19 453.045 1854.22 447.955C1855.28 442.833 1855.96 435.955 1856.26 427.318L1857.81 385.909H1920.99V479H1901.85V401.682H1876.08L1874.62 434.091C1874.14 444.515 1872.9 453.03 1870.9 459.636C1868.93 466.242 1865.78 471.121 1861.44 474.273C1857.14 477.424 1851.25 479 1843.76 479H1838.67ZM1937.22 479V385.909H1998.99V402.136H1956.9V420.318H1972.03C1979.4 420.318 1985.75 421.515 1991.08 423.909C1996.44 426.273 2000.58 429.621 2003.49 433.955C2006.4 438.288 2007.85 443.394 2007.85 449.273C2007.85 455.121 2006.4 460.288 2003.49 464.773C2000.58 469.227 1996.44 472.712 1991.08 475.227C1985.75 477.742 1979.4 479 1972.03 479H1937.22ZM1956.9 463.182H1972.03C1975.55 463.182 1978.52 462.545 1980.94 461.273C1983.37 459.97 1985.2 458.258 1986.44 456.136C1987.72 453.985 1988.35 451.636 1988.35 449.091C1988.35 445.394 1986.94 442.273 1984.12 439.727C1981.34 437.152 1977.31 435.864 1972.03 435.864H1956.9V463.182ZM2106.14 432.455C2106.14 442.606 2104.21 451.242 2100.36 458.364C2096.55 465.485 2091.33 470.924 2084.73 474.682C2078.15 478.409 2070.76 480.273 2062.55 480.273C2054.27 480.273 2046.85 478.394 2040.27 474.636C2033.7 470.879 2028.5 465.439 2024.68 458.318C2020.86 451.197 2018.95 442.576 2018.95 432.455C2018.95 422.303 2020.86 413.667 2024.68 406.545C2028.5 399.424 2033.7 394 2040.27 390.273C2046.85 386.515 2054.27 384.636 2062.55 384.636C2070.76 384.636 2078.15 386.515 2084.73 390.273C2091.33 394 2096.55 399.424 2100.36 406.545C2104.21 413.667 2106.14 422.303 2106.14 432.455ZM2086.18 432.455C2086.18 425.879 2085.2 420.333 2083.23 415.818C2081.29 411.303 2078.55 407.879 2075 405.545C2071.45 403.212 2067.3 402.045 2062.55 402.045C2057.79 402.045 2053.64 403.212 2050.09 405.545C2046.55 407.879 2043.79 411.303 2041.82 415.818C2039.88 420.333 2038.91 425.879 2038.91 432.455C2038.91 439.03 2039.88 444.576 2041.82 449.091C2043.79 453.606 2046.55 457.03 2050.09 459.364C2053.64 461.697 2057.79 462.864 2062.55 462.864C2067.3 462.864 2071.45 461.697 2075 459.364C2078.55 457.03 2081.29 453.606 2083.23 449.091C2085.2 444.576 2086.18 439.03 2086.18 432.455ZM2206.26 432.455C2206.26 442.606 2204.34 451.242 2200.49 458.364C2196.67 465.485 2191.46 470.924 2184.85 474.682C2178.28 478.409 2170.88 480.273 2162.67 480.273C2154.4 480.273 2146.97 478.394 2140.4 474.636C2133.82 470.879 2128.63 465.439 2124.81 458.318C2120.99 451.197 2119.08 442.576 2119.08 432.455C2119.08 422.303 2120.99 413.667 2124.81 406.545C2128.63 399.424 2133.82 394 2140.4 390.273C2146.97 386.515 2154.4 384.636 2162.67 384.636C2170.88 384.636 2178.28 386.515 2184.85 390.273C2191.46 394 2196.67 399.424 2200.49 406.545C2204.34 413.667 2206.26 422.303 2206.26 432.455ZM2186.31 432.455C2186.31 425.879 2185.32 420.333 2183.35 415.818C2181.41 411.303 2178.67 407.879 2175.12 405.545C2171.58 403.212 2167.43 402.045 2162.67 402.045C2157.91 402.045 2153.76 403.212 2150.22 405.545C2146.67 407.879 2143.91 411.303 2141.94 415.818C2140 420.333 2139.03 425.879 2139.03 432.455C2139.03 439.03 2140 444.576 2141.94 449.091C2143.91 453.606 2146.67 457.03 2150.22 459.364C2153.76 461.697 2157.91 462.864 2162.67 462.864C2167.43 462.864 2171.58 461.697 2175.12 459.364C2178.67 457.03 2181.41 453.606 2183.35 449.091C2185.32 444.576 2186.31 439.03 2186.31 432.455ZM2220.84 479V385.909H2240.52V424.318H2280.48V385.909H2300.11V479H2280.48V440.545H2240.52V479H2220.84ZM2329.3 420.318H2351.48C2358.87 420.318 2365.23 421.515 2370.57 423.909C2375.93 426.273 2380.07 429.621 2382.98 433.955C2385.89 438.288 2387.33 443.394 2387.3 449.273C2387.33 455.121 2385.89 460.288 2382.98 464.773C2380.07 469.227 2375.93 472.712 2370.57 475.227C2365.23 477.742 2358.87 479 2351.48 479H2316.7V385.909H2336.34V463.182H2351.48C2355.02 463.182 2358.01 462.545 2360.43 461.273C2362.86 459.97 2364.69 458.258 2365.93 456.136C2367.2 453.985 2367.83 451.636 2367.8 449.091C2367.83 445.394 2366.43 442.273 2363.61 439.727C2360.83 437.152 2356.78 435.864 2351.48 435.864H2329.3V420.318ZM2414.52 385.909V479H2394.89V385.909H2414.52ZM2460.34 479V385.909H2480.02V424.318H2519.98V385.909H2539.61V479H2519.98V440.545H2480.02V479H2460.34ZM2622.16 425.591V441.364H2582.02V425.591H2622.16ZM2554.3 448.5H2573.89C2574.22 453.833 2575.89 457.848 2578.89 460.545C2581.89 463.242 2586.33 464.591 2592.2 464.591C2596.99 464.591 2600.8 463.47 2603.61 461.227C2606.43 458.985 2608.46 455.758 2609.7 451.545C2610.95 447.303 2611.57 442.227 2611.57 436.318V428.773C2611.57 422.682 2610.86 417.545 2609.43 413.364C2608.04 409.152 2605.9 405.97 2603.02 403.818C2600.17 401.667 2596.52 400.591 2592.07 400.591C2587.67 400.591 2584.19 401.258 2581.61 402.591C2579.04 403.924 2577.16 405.833 2575.98 408.318C2574.8 410.773 2574.07 413.742 2573.8 417.227H2554.2C2554.81 411.106 2556.57 405.591 2559.48 400.682C2562.42 395.742 2566.58 391.833 2571.98 388.955C2577.4 386.076 2584.1 384.636 2592.07 384.636C2599.98 384.636 2606.84 386.439 2612.66 390.045C2618.48 393.652 2622.98 398.758 2626.16 405.364C2629.34 411.97 2630.93 419.788 2630.93 428.818V436.364C2630.93 445.394 2629.37 453.197 2626.25 459.773C2623.16 466.318 2618.72 471.379 2612.93 474.955C2607.14 478.5 2600.23 480.273 2592.2 480.273C2584.54 480.273 2577.96 478.939 2572.48 476.273C2566.99 473.576 2562.7 469.848 2559.61 465.091C2556.52 460.303 2554.75 454.773 2554.3 448.5ZM2645.47 479V385.909H2682.19C2689.25 385.909 2695.27 387.258 2700.24 389.955C2705.21 392.621 2709 396.333 2711.6 401.091C2714.24 405.818 2715.56 411.273 2715.56 417.455C2715.56 423.636 2714.22 429.091 2711.56 433.818C2708.89 438.545 2705.03 442.227 2699.97 444.864C2694.94 447.5 2688.84 448.818 2681.69 448.818H2658.28V433.045H2678.51C2682.3 433.045 2685.42 432.394 2687.88 431.091C2690.36 429.758 2692.21 427.924 2693.42 425.591C2694.66 423.227 2695.28 420.515 2695.28 417.455C2695.28 414.364 2694.66 411.667 2693.42 409.364C2692.21 407.03 2690.36 405.227 2687.88 403.955C2685.39 402.652 2682.24 402 2678.42 402H2665.15V479H2645.47ZM2794.66 425.591V441.364H2754.52V425.591H2794.66ZM2726.8 448.5H2746.39C2746.72 453.833 2748.39 457.848 2751.39 460.545C2754.39 463.242 2758.83 464.591 2764.7 464.591C2769.49 464.591 2773.3 463.47 2776.11 461.227C2778.93 458.985 2780.96 455.758 2782.2 451.545C2783.45 447.303 2784.07 442.227 2784.07 436.318V428.773C2784.07 422.682 2783.36 417.545 2781.93 413.364C2780.54 409.152 2778.4 405.97 2775.52 403.818C2772.67 401.667 2769.02 400.591 2764.57 400.591C2760.17 400.591 2756.69 401.258 2754.11 402.591C2751.54 403.924 2749.66 405.833 2748.48 408.318C2747.3 410.773 2746.57 413.742 2746.3 417.227H2726.7C2727.31 411.106 2729.07 405.591 2731.98 400.682C2734.92 395.742 2739.08 391.833 2744.48 388.955C2749.9 386.076 2756.6 384.636 2764.57 384.636C2772.48 384.636 2779.34 386.439 2785.16 390.045C2790.98 393.652 2795.48 398.758 2798.66 405.364C2801.84 411.97 2803.43 419.788 2803.43 428.818V436.364C2803.43 445.394 2801.87 453.197 2798.75 459.773C2795.66 466.318 2791.22 471.379 2785.43 474.955C2779.64 478.5 2772.73 480.273 2764.7 480.273C2757.04 480.273 2750.46 478.939 2744.98 476.273C2739.49 473.576 2735.2 469.848 2732.11 465.091C2729.02 460.303 2727.25 454.773 2726.8 448.5ZM2817.97 385.909H2842.24L2867.88 448.455H2868.97L2894.6 385.909H2918.88V479H2899.78V418.409H2899.01L2874.92 478.545H2861.92L2837.83 418.182H2837.06V479H2817.97V385.909ZM3006 385.909V479H2986.91V385.909H3006ZM2930.68 479L2959.86 429.909L2931.91 385.909H2956.14L2977.05 424.227H3016.36L3036.73 385.909H3060.86L3033.59 429.773L3062.23 479H3038.73L3019.05 442.409H2974.18L2954 479H2930.68ZM3073.97 385.909H3093.6V444.455H3094.38L3134.6 385.909H3151.83V479H3132.15V420.409H3131.47L3091.01 479H3073.97V385.909ZM3164.55 402.136V385.909H3241V402.136H3212.5V479H3193.05V402.136H3164.55Z" fill="#21409A"/>
</svg>
